<svg xmlns="http://www.w3.org/2000/svg" viewBox="0 0 24 16" role="img" aria-label="Bosnia and Herzegovina flag">
  <rect width="24" height="16" fill="#002395"/>
  <path d="M8.7 0H24v16Z" fill="#fecb00"/>
  <path d="M6.4 0 24 16H10.5Z" fill="#fecb00"/>
  <g fill="#fff">
    <path d="m7.2 1.1.35 1.07h1.12l-.91.66.35 1.07-.91-.66-.9.66.34-1.07-.9-.66h1.12z"/>
    <path d="m9.3 2.95.35 1.07h1.12l-.91.66.35 1.07-.91-.66-.9.66.34-1.07-.9-.66h1.12z"/>
    <path d="m11.4 4.8.35 1.07h1.12l-.91.66.35 1.07-.91-.66-.9.66.34-1.07-.9-.66h1.12z"/>
    <path d="m13.5 6.65.35 1.07h1.12l-.91.66.35 1.07-.91-.66-.9.66.34-1.07-.9-.66h1.12z"/>
    <path d="m15.6 8.5.35 1.07h1.12l-.91.66.35 1.07-.91-.66-.9.66.34-1.07-.9-.66h1.12z"/>
    <path d="m17.7 10.35.35 1.07h1.12l-.91.66.35 1.07-.91-.66-.9.66.34-1.07-.9-.66h1.12z"/>
    <path d="m19.8 12.2.35 1.07h1.12l-.91.66.35 1.07-.91-.66-.9.66.34-1.07-.9-.66h1.12z"/>
  </g>
</svg>
